<svg width="28" height="28" viewBox="0 0 28 28" fill="none" xmlns="http://www.w3.org/2000/svg">
<path d="M25.4397 11.7151H24.5V11.6667H14V16.3333H20.5934C19.6315 19.0499 17.0467 21 14 21C10.1342 21 7 17.8657 7 14C7 10.1342 10.1342 7 14 7C15.7844 7 17.4078 7.67316 18.6439 8.77275L21.9438 5.47283C19.8602 3.53091 17.073 2.33333 14 2.33333C7.55708 2.33333 2.33333 7.55708 2.33333 14C2.33333 20.4429 7.55708 25.6667 14 25.6667C20.4429 25.6667 25.6667 20.4429 25.6667 14C25.6667 13.2177 25.5862 12.4542 25.4397 11.7151Z" fill="#FFC107"/>
<path d="M3.67848 8.56975L7.51156 11.3808C8.54873 8.813 11.0606 7 14 7C15.7844 7 17.4078 7.67316 18.6439 8.77275L21.9438 5.47283C19.8601 3.53091 17.073 2.33333 14 2.33333C9.51881 2.33333 5.63265 4.86325 3.67848 8.56975Z" fill="#FF3D00"/>
<path d="M14 25.6667C17.0135 25.6667 19.7517 24.5135 21.822 22.638L18.2111 19.5825C17.0004 20.5033 15.5211 21.0012 14 21C10.9655 21 8.38895 19.0651 7.41828 16.3649L3.61378 19.2961C5.54462 23.0744 9.46579 25.6667 14 25.6667Z" fill="#4CAF50"/>
<path d="M25.4398 11.7151H24.5V11.6667H14V16.3333H20.5934C20.1333 17.6262 19.3045 18.756 18.2093 19.5831L18.2111 19.5819L21.8219 22.6374C21.5664 22.8696 25.6667 19.8333 25.6667 14C25.6667 13.2177 25.5862 12.4542 25.4398 11.7151Z" fill="#1976D2"/>
</svg>
